PathFileType	4	(X/Y/Z)	Kaydara	
DataRate	CameraRate	NumFrames	NumMarkers	Units	OrigDataRate	OrigDataStartFrame	OrigNumFrames	
60.00	60.00	4	74	mm	60.00	2671	161	
Frame#	Time	Z_lasi			Z_rasi			Z_rpsi			Z_lpsi			Z_fneck			Z_bneck			Z_fhead			Z_rhead			Z_lhead			Z_rshld			Z_relbtop			Z_relbext			Z_relblow			Z_rwrext			Z_rwrtop			Z_rwrlow			Z_lshld			Z_lelbext			Z_lelblow			Z_lelbtop			Z_lwrext			Z_lwrtop			Z_rtopleg			Z_ltopleg			Z_rkneefr			Z_rkneebk			Z_rkneeis			Z_lkneefr			Z_lknssbk			Z_lkneeis			Z_rankfr			Z_rankis			Z_rankbk			Z_lankfr			Z_lankbk			Z_lankis			A_lasi			A_rasi			A_rpsi			A_lpsi			A_fneck			A_bneck			A_fhead			A_rhead			A_lhead			A_rshld			A_relbtop			A_relbext			A_relblow			A_rwrext			A_rwrtop			A_rwrlow			A_lshld			A_lelbext			A_lelblow			A_lelbtop			A_lwrext			A_lwrtop			A_lwrlow			A_rtopleg			A_ltopleg			A_rkneefr			A_rkneebk			A_rkneeis			A_lkneefr			A_lknssbk			A_lkneeis			A_rankfr			A_rankis			A_rankbk			A_lankfr			A_lankbk			A_lankis			Z_lwrlow			
		X1	Y1	Z1	X2	Y2	Z2	X3	Y3	Z3	X4	Y4	Z4	X5	Y5	Z5	X6	Y6	Z6	X7	Y7	Z7	X8	Y8	Z8	X9	Y9	Z9	X10	Y10	Z10	X11	Y11	Z11	X12	Y12	Z12	X13	Y13	Z13	X14	Y14	Z14	X15	Y15	Z15	X16	Y16	Z16	X17	Y17	Z17	X18	Y18	Z18	X19	Y19	Z19	X20	Y20	Z20	X21	Y21	Z21	X22	Y22	Z22	X23	Y23	Z23	X24	Y24	Z24	X25	Y25	Z25	X26	Y26	Z26	X27	Y27	Z27	X28	Y28	Z28	X29	Y29	Z29	X30	Y30	Z30	X31	Y31	Z31	X32	Y32	Z32	X33	Y33	Z33	X34	Y34	Z34	X35	Y35	Z35	X36	Y36	Z36	X37	Y37	Z37	X38	Y38	Z38	X39	Y39	Z39	X40	Y40	Z40	X41	Y41	Z41	X42	Y42	Z42	X43	Y43	Z43	X44	Y44	Z44	X45	Y45	Z45	X46	Y46	Z46	X47	Y47	Z47	X48	Y48	Z48	X49	Y49	Z49	X50	Y50	Z50	X51	Y51	Z51	X52	Y52	Z52	X53	Y53	Z53	X54	Y54	Z54	X55	Y55	Z55	X56	Y56	Z56	X57	Y57	Z57	X58	Y58	Z58	X59	Y59	Z59	X60	Y60	Z60	X61	Y61	Z61	X62	Y62	Z62	X63	Y63	Z63	X64	Y64	Z64	X65	Y65	Z65	X66	Y66	Z66	X67	Y67	Z67	X68	Y68	Z68	X69	Y69	Z69	X70	Y70	Z70	X71	Y71	Z71	X72	Y72	Z72	X73	Y73	Z73	X74	Y74	Z74	

61	44.500	-725.32738	1096.92589	-437.08870	-831.54251	1109.84695	-256.96466	-1015.61081	1121.72188	-324.63528	-892.97951	1106.21948	-541.34682	-841.58752	1457.54318	-368.57552	-917.51122	1511.42288	-453.41007	-832.92648	1661.18042	-280.55447	-968.96797	1650.29465	-378.70583	-839.63509	1654.96368	-450.36129	-1024.30206	1468.83194	-293.16858	-1038.52058	1372.66586	-80.16564	-1039.77776	1336.53107	1.74967	-990.01556	1299.82880	-26.71755	-916.08406	1505.43411	-64.64210	-920.28008	1491.89026	-109.12260	-881.77559	1466.95343	-108.54226	-779.83475	1451.49872	-569.69872	-735.48218	1134.47769	-673.11554	-763.45970	1117.04666	-608.07274	-677.96577	1147.75726	-624.70798	-619.35719	918.50060	-539.96643	-596.97529	911.33278	-581.50852	-1010.28778	924.84993	-256.03960	-756.65367	897.41447	-523.70476	-929.58229	418.02864	-260.24389	-1012.24030	451.73096	-276.55085	-916.25275	434.39785	-356.40755	-773.81508	428.59180	-471.86504	-860.01610	461.31073	-529.69139	-839.48708	421.41060	-399.90978	-980.75256	181.58627	-290.49299	-950.60509	180.23985	-350.75714	-1036.17943	182.92843	-340.90137	-835.26001	165.53864	-502.92625	-915.44060	175.16277	-500.47913	-868.03192	176.35061	-440.70602	207.36055	1041.99776	290.00446	244.11772	1054.95270	137.96236	404.09447	1047.05688	163.33145	327.68238	1048.12431	330.86994	300.72680	1381.22574	237.21376	441.07101	1422.84088	249.32011	244.28196	1589.66492	196.55872	411.02089	1569.04251	160.05894	363.01594	1571.67343	316.06075	388.21365	1378.92471	92.84502	158.77707	1320.73868	-14.92155	157.59955	1256.43166	-15.63977	131.62334	1298.42331	33.47270	-83.95062	1308.03635	-87.84368	-88.02730	1301.64902	-42.76653	-75.17063	1349.14444	-88.74478	299.80124	1368.61115	397.17804	252.79785	1069.71100	444.30992	299.30792	1055.41084	431.54366	241.36826	1066.89125	391.57097	169.20088	850.61890	427.40788	133.35674	869.86061	404.60155	184.70444	853.42674	387.75856	372.46529	883.42499	69.93171	234.36956	884.13506	385.46158	374.08241	416.87973	210.29671	426.09169	457.32784	122.33599	328.88294	409.18293	109.98327	354.44881	457.15290	240.61808	326.56742	476.97868	359.14810	259.66541	423.23719	269.79408	387.63481	173.57269	101.34737	389.69883	165.87736	172.51278	463.12355	163.97858	130.65765	308.08147	169.53787	299.93504	356.01715	170.24628	351.30783	378.82954	177.33242	267.92196	-634.39068	899.51889	-606.53580 
62	44.517	-724.01100	1096.75171	-437.92507	-829.99596	1109.39285	-257.84216	-1013.78914	1122.03087	-325.49736	-891.62033	1106.29028	-542.29042	-839.75540	1457.41180	-369.67976	-914.89792	1512.00180	-454.61678	-829.38332	1659.55002	-279.95289	-965.03311	1651.05270	-378.88794	-835.28305	1655.09460	-449.77573	-1022.57927	1469.37698	-295.05804	-1036.72119	1374.43497	-82.08921	-1037.96898	1337.95563	0.33814	-986.96304	1302.85828	-28.08629	-917.21191	1509.49692	-64.77697	-922.34894	1497.15027	-109.50846	-883.48083	1472.86560	-110.89167	-777.41905	1451.32065	-570.64922	-733.44467	1134.39438	-674.31602	-762.12204	1116.85402	-609.72649	-676.05972	1147.33505	-625.57873	-618.84350	917.56126	-540.59307	-596.24805	910.55588	-582.34730	-1009.26025	924.98932	-256.88770	-755.72578	897.27577	-524.70734	-928.21930	417.99843	-259.55612	-1010.84648	451.86165	-275.72262	-914.87724	434.35196	-355.46806	-773.66531	428.61794	-472.55318	-859.89876	461.28536	-530.47600	-839.35547	421.48964	-400.61836	-980.30945	181.82917	-290.09699	-950.29526	180.56042	-350.45502	-1035.67604	183.40397	-340.71301	-835.13168	165.47169	-503.18989	-915.28229	175.11896	-500.71327	-867.83066	176.52849	-440.67898	206.61320	1041.95938	290.63122	242.27665	1055.30624	138.15630	402.58018	1047.02515	161.80183	327.44957	1047.96837	330.14328	300.46169	1381.16577	237.97276	440.80589	1422.78091	250.07908	244.74483	1589.28436	196.30907	411.62807	1568.51028	160.50259	363.03509	1572.02621	316.31052	386.13441	1379.13361	92.99689	155.47852	1323.26508	-12.43664	153.67885	1258.91640	-12.08586	128.37774	1301.79047	36.47684	-87.27598	1307.85751	-86.30513	-90.81808	1302.30270	-41.77975	-78.71741	1349.03030	-87.86658	301.29776	1368.02032	397.93736	253.57662	1069.19456	444.56402	299.79511	1054.74098	431.67667	241.76634	1066.44592	391.80801	169.66721	850.17731	428.11623	133.51570	869.55238	405.40142	184.53297	853.34236	387.56401	370.25944	883.34023	68.69966	234.93786	884.36020	385.56568	374.09008	416.98219	210.08295	425.58182	457.44270	121.70092	328.38318	409.03542	109.94342	354.13494	457.22511	240.37018	326.98551	477.11494	359.24530	259.77072	423.23341	270.11578	387.37022	173.59467	101.31159	389.58355	166.04315	172.62568	463.00400	164.11240	130.31987	308.31768	169.58645	300.27908	356.31355	170.28660	351.41872	378.73463	177.38834	267.76514	-633.71117	898.87253	-607.41283 
63	44.533	-722.59041	1096.56593	-438.58875	-828.58315	1109.13643	-258.64304	-1012.47292	1122.50969	-326.35235	-890.16479	1106.38832	-543.08537	-838.07465	1456.94214	-370.74657	-912.42599	1512.66769	-455.71850	-825.63690	1657.68951	-279.09416	-961.05980	1652.12311	-378.52833	-830.92468	1655.01572	-449.08104	-1020.98061	1470.27573	-297.26801	-1035.41534	1376.54495	-84.13363	-1037.99400	1340.44403	-1.49976	-986.25397	1305.58777	-28.67727	-917.30522	1512.39365	-64.96493	-922.02736	1500.20660	-109.83194	-883.46146	1475.82214	-110.72847	-775.13451	1451.25320	-571.67850	-731.37199	1134.36287	-675.26596	-760.70229	1117.01172	-611.07834	-674.23401	1147.07199	-626.36738	-618.08521	917.15584	-541.47011	-595.72613	909.62288	-583.23624	-1008.43651	925.26863	-257.32985	-754.90860	897.12799	-525.63622	-927.09625	418.03486	-258.91159	-1009.79454	452.04002	-275.09851	-913.76091	434.39995	-354.67056	-773.82172	428.60844	-473.21434	-860.05722	461.28727	-531.31538	-839.48898	421.53431	-401.38039	-980.00954	182.10777	-289.73707	-949.86458	180.63480	-349.05209	-1035.23544	183.88771	-340.50266	-835.08774	165.38963	-503.49506	-915.23125	175.03931	-501.00761	-867.91267	176.64894	-440.83065	206.25643	1041.87714	291.12465	240.45322	1055.28786	138.38093	400.64083	1046.91948	160.57274	327.41714	1047.60284	329.47021	300.17649	1381.01273	238.59770	440.52071	1422.62787	250.70404	245.26146	1589.03473	196.14038	412.21729	1567.88086	160.88923	363.09952	1572.26852	316.50036	384.45045	1379.32755	92.98182	152.75497	1325.02518	-10.43813	150.22228	1260.61928	-8.92343	125.74922	1304.45877	39.02121	-90.23831	1307.34283	-84.62695	-94.55282	1302.88132	-39.30211	-81.83153	1348.54263	-86.75913	302.74557	1367.36816	398.71807	254.49554	1068.55812	444.99847	300.43583	1054.22707	431.88522	242.64519	1065.92056	392.30556	170.06449	849.74205	428.68572	133.94083	869.11591	406.30417	184.96223	852.69440	388.53798	367.94636	883.19099	67.51104	235.73730	884.63821	385.85705	373.93597	417.09984	209.94678	424.82933	457.47204	121.17119	327.73750	408.79524	110.00891	352.56123	457.46647	238.96685	327.56641	477.22401	359.28448	259.92285	423.22006	270.46423	387.11304	173.58274	101.25255	389.56738	166.11956	172.60603	462.76421	164.24212	130.00278	308.44223	169.66501	300.54598	357.05269	170.31984	351.15551	378.61183	177.43851	267.60250	-633.22773	898.13194	-608.52524 
64	44.550	-721.14372	1096.26007	-439.19956	-827.41295	1109.21700	-259.55048	-1011.18507	1122.91519	-327.36950	-888.62602	1106.48727	-543.79524	-836.38832	1456.30875	-371.54053	-909.95018	1513.38989	-456.76323	-821.45233	1655.53940	-278.19614	-956.81000	1653.26263	-377.98553	-826.59058	1654.90311	-448.23215	-1019.30206	1471.26068	-299.58130	-1034.72122	1378.89175	-86.03365	-1039.43748	1343.32428	-3.19269	-987.58553	1307.67258	-28.90054	-916.11313	1513.73581	-65.36737	-919.66118	1500.75394	-110.24202	-881.20552	1476.25702	-109.14938	-772.76527	1451.30402	-572.54814	-729.44633	1134.33105	-675.81841	-759.09103	1116.97075	-611.96262	-672.46887	1146.67542	-626.68503	-617.98409	915.96527	-542.45701	-595.24162	908.57384	-584.17309	-1007.40219	925.69405	-258.32247	-754.02489	896.96030	-526.32301	-926.45355	418.12962	-257.82984	-1008.87299	452.39460	-274.55311	-912.67906	434.45583	-353.54198	-774.27757	428.62900	-473.80913	-860.33203	461.23718	-532.20074	-840.07263	421.48090	-401.83472	-979.85352	182.37587	-289.35221	-949.43443	180.90244	-348.61580	-1034.87686	184.40016	-340.24166	-835.16617	165.30626	-503.58315	-915.24544	174.88445	-501.30634	-867.99988	176.66161	-441.01093	205.97656	1041.61255	291.56134	238.81102	1055.42885	138.58129	399.06143	1046.91307	159.18961	327.46231	1047.38167	328.75809	299.94940	1380.87677	239.30607	440.29362	1422.49191	251.41239	245.75304	1588.86673	196.10594	412.69253	1567.25800	161.20161	363.19103	1572.38541	316.74873	382.77588	1379.44427	92.98525	150.24014	1326.25534	-8.51770	147.34626	1261.88934	-6.29096	123.38496	1306.26938	41.34995	-92.81741	1306.88202	-82.95455	-96.97810	1302.53098	-37.55781	-84.56836	1348.07846	-85.24712	303.98233	1366.60736	399.50718	255.63681	1067.83730	445.49152	301.66590	1053.39165	432.00745	243.34536	1065.40077	392.90600	170.70910	849.14490	429.52629	134.47177	868.51898	407.37881	185.41605	852.19612	389.25743	365.72224	883.04222	66.26777	236.05906	884.72351	385.60505	373.80917	417.12585	209.68061	424.11629	457.56081	120.48490	327.01782	408.52127	110.06465	358.95447	456.44798	244.09330	328.04989	477.35275	359.33628	260.04662	423.21091	270.79626	386.77795	173.56796	101.21314	389.55227	166.15492	172.58961	462.59346	164.39344	129.70452	308.52591	169.72673	300.78247	357.32159	170.32660	351.19156	378.53069	177.47120	267.44070	-632.70748	897.53220	-609.61353 
